<svg width="176" height="98" viewBox="0 0 176 98" fill="none" xmlns="http://www.w3.org/2000/svg">
<g clip-path="url(#clip0)">
<path d="M20.6074 87.4224V49.9468H40.6302V55.1357H26.4294V64.5169H40.6302V69.8633H26.4294V81.9699H40.6302V87.4207H20.6074V87.4224ZM64.8178 87.4224H59.4991V84.2865C58.5536 85.6757 57.4421 86.7145 56.1781 87.3959C54.9073 88.0772 53.4602 88.417 51.8201 88.417C48.5414 88.417 45.9489 87.2472 44.0665 84.897C42.1755 82.5557 41.2317 79.3419 41.2317 75.2627C41.2317 71.3923 42.1941 68.2652 44.1258 65.8902C46.0574 63.5064 48.5753 62.3172 51.6777 62.3172C53.5755 62.3172 55.1987 62.7278 56.5458 63.5578C57.8928 64.3789 58.879 65.5664 59.4974 67.1131V63.156H64.8162V87.4224H64.8178ZM59.6482 75.2096C59.6482 72.7019 59.0874 70.7463 57.9674 69.3483C56.8474 67.9413 55.2834 67.2423 53.2756 67.2423C51.2592 67.2423 49.6783 67.9679 48.5329 69.4084C47.379 70.849 46.8012 72.8594 46.8012 75.4184C46.8012 77.9951 47.3536 79.9878 48.4651 81.3841C49.5784 82.7911 51.1491 83.4901 53.1739 83.4901C55.0886 83.4901 56.644 82.7309 57.8403 81.2107C59.045 79.6905 59.6465 77.6907 59.6465 75.2096H59.6482ZM86.0843 87.4224H64.5061L77.4361 68.0298H65.8023V63.156H86.0843L73.422 82.5486H86.0843V87.4224ZM86.3842 52.6722C86.3842 51.7378 86.718 50.9255 87.3789 50.2353C88.0397 49.554 88.8259 49.2124 89.7459 49.2124C90.6914 49.2124 91.4861 49.5451 92.113 50.1999C92.74 50.8547 93.0585 51.6847 93.0585 52.6722C93.0585 53.6686 92.74 54.4986 92.1046 55.1711C91.4607 55.8435 90.6745 56.1851 89.7459 56.1851C88.8259 56.1851 88.0397 55.8365 87.3789 55.1463C86.718 54.4561 86.3842 53.6349 86.3842 52.674V52.6722ZM87.0874 87.4224V63.156H92.4062V87.4224H87.0874Z" fill="#153B50"/>
<path d="M125.828 58.9104C124.114 56.962 122.282 55.5214 120.342 54.5959C118.393 53.6614 116.243 53.1978 113.893 53.1978C111.995 53.1978 110.147 53.5995 108.339 54.403C106.541 55.2064 104.969 56.3249 103.647 57.7566C102.274 59.2414 101.246 60.9014 100.561 62.7366C99.8751 64.5718 99.5329 66.5981 99.5329 68.8173C99.5329 70.5552 99.7345 72.1621 100.143 73.631C100.553 75.0981 101.163 76.443 101.983 77.6748C103.422 79.8055 105.185 81.4478 107.285 82.6017C109.384 83.7555 111.651 84.3307 114.084 84.3307C116.375 84.3307 118.5 83.8334 120.457 82.8459C122.423 81.8584 124.212 80.3824 125.827 78.4163V84.3307C124.046 85.6757 122.129 86.6986 120.081 87.3888C118.032 88.0789 115.908 88.4187 113.717 88.4187C111.826 88.4187 109.979 88.1214 108.179 87.5356C106.382 86.9499 104.701 86.0863 103.128 84.9589C100.519 83.0724 98.5196 80.7399 97.1404 77.9792C95.7611 75.2096 95.0664 72.178 95.0664 68.8686C95.0664 65.9858 95.5273 63.356 96.4541 60.9987C97.3742 58.6308 98.7788 56.4912 100.678 54.5605C102.51 52.7182 104.535 51.3378 106.76 50.4282C108.984 49.5115 111.409 49.0566 114.035 49.0566C116.118 49.0566 118.126 49.3893 120.066 50.0441C122.014 50.6989 123.931 51.713 125.828 53.0934V58.9104ZM146.039 75.944C146.039 73.2965 145.345 71.1657 143.965 69.5588C142.586 67.9431 140.787 67.1396 138.562 67.1396C136.263 67.1396 134.463 67.8829 133.175 69.3677C131.879 70.8525 131.235 72.9231 131.235 75.5865C131.235 78.4163 131.888 80.6001 133.184 82.1292C134.48 83.667 136.329 84.4351 138.713 84.4351C140.997 84.4351 142.794 83.6918 144.091 82.1982C145.387 80.7045 146.039 78.6163 146.039 75.944ZM149.753 63.9948V87.4224H146.039V83.1768C145.145 84.8811 143.991 86.1818 142.593 87.072C141.197 87.971 139.633 88.417 137.901 88.417C134.69 88.417 132.087 87.2631 130.122 84.9483C128.156 82.6335 127.17 79.5755 127.17 75.767C127.17 71.9143 128.124 68.8492 130.039 66.568C131.945 64.2886 134.505 63.1525 137.708 63.1525C139.582 63.1525 141.212 63.5896 142.593 64.4709C143.972 65.354 145.094 66.6724 145.938 68.4103V63.9895H149.752L149.753 63.9948ZM153.639 87.4224V63.9948H157.06V68.8775C158.088 66.8423 159.184 65.3911 160.347 64.5187C161.509 63.6444 162.922 63.2091 164.588 63.2091C165.047 63.2091 165.491 63.2445 165.918 63.3223C166.337 63.4002 166.764 63.5152 167.189 63.6621L165.918 67.2954C165.474 67.1379 165.057 67.0246 164.664 66.9467C164.271 66.8689 163.895 66.8335 163.536 66.8335C161.511 66.8335 159.989 67.5927 158.978 69.1217C157.966 70.6508 157.456 72.9478 157.456 76.013V87.4206H153.642L153.639 87.4224ZM167.97 67.2954H163.854V63.9931H167.97V54.5587H171.884V63.9931H176V67.2954H171.884V87.4224H167.97V67.2954Z" fill="#FF8200"/>
<path fill-rule="evenodd" clip-rule="evenodd" d="M58.8162 23.7171C57.4471 14.0403 52.4893 5.65183 42.4516 5.6359C33.0934 5.62174 26.3124 13.4811 25.2568 22.2394C36.9685 22.3898 47.2587 23.0145 58.8179 23.7171H58.8162ZM65.2058 33.6983C65.3278 37.2183 67.7779 37.1422 66.3495 40.6144C64.3196 45.5502 56.2339 42.554 58.7078 36.8414C60.1243 33.5709 59.9142 36.0574 59.5499 29.3926C52.3215 27.4636 32.3428 26.2549 24.2842 26.7628C24.0301 28.0866 23.7827 29.536 23.7115 30.8403C23.5234 34.3107 23.8301 32.7038 24.6383 34.8097C25.6957 37.5687 24.069 40.2569 21.5681 40.5525C18.6249 40.8993 16.6238 38.6553 17.2643 35.5424C18.1657 31.1641 18.0386 35.0009 18.6571 26.8018L5.86773 27.945L6.82507 33.3639C9.87161 56.8392 7.38761 65.6878 6.18966 87.1492C13.2282 92.7557 41.3994 95.7164 52.8604 95.5642C58.7044 95.4863 64.7907 94.4475 70.2551 94.4652C59.1602 99.9124 11.1034 99.4717 0.0237217 90.2568C0.665901 78.198 2.73308 76.0867 2.52975 57.1082C2.362 41.5187 0.496461 34.9372 0 24.1684L19.5551 22.2642C21.9629 10.0036 29.425 -0.250189 42.9549 0.00465028C56.4203 0.25772 62.3355 11.1557 64.467 24.2551L85.2608 27.5433C86.7993 45.2493 80.7757 42.462 79.5862 52.6874C75.4604 37.0537 79.1542 34.5301 78.3934 32.6931L65.1143 29.9483L65.2041 33.6983H65.2058Z" fill="#FF8200"/>
<path d="M20.6074 87.4224V49.9468H40.6302V55.1357H26.4294V64.5169H40.6302V69.8633H26.4294V81.9699H40.6302V87.4207H20.6074V87.4224ZM64.8178 87.4224H59.4991V84.2865C58.5536 85.6757 57.4421 86.7145 56.1781 87.3959C54.9073 88.0772 53.4602 88.417 51.8201 88.417C48.5414 88.417 45.9489 87.2472 44.0665 84.897C42.1755 82.5557 41.2317 79.3419 41.2317 75.2627C41.2317 71.3923 42.1941 68.2652 44.1258 65.8902C46.0574 63.5064 48.5753 62.3172 51.6777 62.3172C53.5755 62.3172 55.1987 62.7278 56.5458 63.5578C57.8928 64.3789 58.879 65.5664 59.4974 67.1131V63.156H64.8162V87.4224H64.8178ZM59.6482 75.2096C59.6482 72.7019 59.0874 70.7463 57.9674 69.3483C56.8474 67.9413 55.2834 67.2423 53.2756 67.2423C51.2592 67.2423 49.6783 67.9679 48.5329 69.4084C47.379 70.849 46.8012 72.8594 46.8012 75.4184C46.8012 77.9951 47.3536 79.9878 48.4651 81.3841C49.5784 82.7911 51.1491 83.4901 53.1739 83.4901C55.0886 83.4901 56.644 82.7309 57.8403 81.2107C59.045 79.6905 59.6465 77.6907 59.6465 75.2096H59.6482ZM86.0843 87.4224H64.5061L77.4361 68.0298H65.8023V63.156H86.0843L73.422 82.5486H86.0843V87.4224ZM86.3842 52.6722C86.3842 51.7378 86.718 50.9255 87.3789 50.2353C88.0397 49.554 88.8259 49.2124 89.7459 49.2124C90.6914 49.2124 91.4861 49.5451 92.113 50.1999C92.74 50.8547 93.0585 51.6847 93.0585 52.6722C93.0585 53.6686 92.74 54.4986 92.1046 55.1711C91.4607 55.8435 90.6745 56.1851 89.7459 56.1851C88.8259 56.1851 88.0397 55.8365 87.3789 55.1463C86.718 54.4561 86.3842 53.6349 86.3842 52.674V52.6722ZM87.0874 87.4224V63.156H92.4062V87.4224H87.0874Z" fill="#153B50"/>
<path d="M125.828 58.9104C124.114 56.962 122.282 55.5214 120.342 54.5959C118.393 53.6614 116.243 53.1978 113.893 53.1978C111.995 53.1978 110.147 53.5995 108.339 54.403C106.541 55.2064 104.969 56.3249 103.647 57.7566C102.274 59.2414 101.246 60.9014 100.561 62.7366C99.8751 64.5718 99.5329 66.5981 99.5329 68.8173C99.5329 70.5552 99.7345 72.1621 100.143 73.631C100.553 75.0981 101.163 76.443 101.983 77.6748C103.422 79.8055 105.185 81.4478 107.285 82.6017C109.384 83.7555 111.651 84.3307 114.084 84.3307C116.375 84.3307 118.5 83.8334 120.457 82.8459C122.423 81.8584 124.212 80.3824 125.827 78.4163V84.3307C124.046 85.6757 122.129 86.6986 120.081 87.3888C118.032 88.0789 115.908 88.4187 113.717 88.4187C111.826 88.4187 109.979 88.1214 108.179 87.5356C106.382 86.9499 104.701 86.0863 103.128 84.9589C100.519 83.0724 98.5196 80.7399 97.1404 77.9792C95.7611 75.2096 95.0664 72.178 95.0664 68.8686C95.0664 65.9858 95.5273 63.356 96.4541 60.9987C97.3742 58.6308 98.7788 56.4912 100.678 54.5605C102.51 52.7182 104.535 51.3378 106.76 50.4282C108.984 49.5115 111.409 49.0566 114.035 49.0566C116.118 49.0566 118.126 49.3893 120.066 50.0441C122.014 50.6989 123.931 51.713 125.828 53.0934V58.9104ZM146.039 75.944C146.039 73.2965 145.345 71.1657 143.965 69.5588C142.586 67.9431 140.787 67.1396 138.562 67.1396C136.263 67.1396 134.463 67.8829 133.175 69.3677C131.879 70.8525 131.235 72.9231 131.235 75.5865C131.235 78.4163 131.888 80.6001 133.184 82.1292C134.48 83.667 136.329 84.4351 138.713 84.4351C140.997 84.4351 142.794 83.6918 144.091 82.1982C145.387 80.7045 146.039 78.6163 146.039 75.944ZM149.753 63.9948V87.4224H146.039V83.1768C145.145 84.8811 143.991 86.1818 142.593 87.072C141.197 87.971 139.633 88.417 137.901 88.417C134.69 88.417 132.087 87.2631 130.122 84.9483C128.156 82.6335 127.17 79.5755 127.17 75.767C127.17 71.9143 128.124 68.8492 130.039 66.568C131.945 64.2886 134.505 63.1525 137.708 63.1525C139.582 63.1525 141.212 63.5896 142.593 64.4709C143.972 65.354 145.094 66.6724 145.938 68.4103V63.9895H149.752L149.753 63.9948ZM153.639 87.4224V63.9948H157.06V68.8775C158.088 66.8423 159.184 65.3911 160.347 64.5187C161.509 63.6444 162.922 63.2091 164.588 63.2091C165.047 63.2091 165.491 63.2445 165.918 63.3223C166.337 63.4002 166.764 63.5152 167.189 63.6621L165.918 67.2954C165.474 67.1379 165.057 67.0246 164.664 66.9467C164.271 66.8689 163.895 66.8335 163.536 66.8335C161.511 66.8335 159.989 67.5927 158.978 69.1217C157.966 70.6508 157.456 72.9478 157.456 76.013V87.4206H153.642L153.639 87.4224ZM167.97 67.2954H163.854V63.9931H167.97V54.5587H171.884V63.9931H176V67.2954H171.884V87.4224H167.97V67.2954Z" fill="#FF8200"/>
<path fill-rule="evenodd" clip-rule="evenodd" d="M58.8162 23.7171C57.4471 14.0403 52.4893 5.65183 42.4516 5.6359C33.0934 5.62174 26.3124 13.4811 25.2568 22.2394C36.9685 22.3898 47.2587 23.0145 58.8179 23.7171H58.8162ZM65.2058 33.6983C65.3278 37.2183 67.7779 37.1422 66.3495 40.6144C64.3196 45.5502 56.2339 42.554 58.7078 36.8414C60.1243 33.5709 59.9142 36.0574 59.5499 29.3926C52.3215 27.4636 32.3428 26.2549 24.2842 26.7628C24.0301 28.0866 23.7827 29.536 23.7115 30.8403C23.5234 34.3107 23.8301 32.7038 24.6383 34.8097C25.6957 37.5687 24.069 40.2569 21.5681 40.5525C18.6249 40.8993 16.6238 38.6553 17.2643 35.5424C18.1657 31.1641 18.0386 35.0009 18.6571 26.8018L5.86773 27.945L6.82507 33.3639C9.87161 56.8392 7.38761 65.6878 6.18966 87.1492C13.2282 92.7557 41.3994 95.7164 52.8604 95.5642C58.7044 95.4863 64.7907 94.4475 70.2551 94.4652C59.1602 99.9124 11.1034 99.4717 0.0237217 90.2568C0.665901 78.198 2.73308 76.0867 2.52975 57.1082C2.362 41.5187 0.496461 34.9372 0 24.1684L19.5551 22.2642C21.9629 10.0036 29.425 -0.250189 42.9549 0.00465028C56.4203 0.25772 62.3355 11.1557 64.467 24.2551L85.2608 27.5433C86.7993 45.2493 80.7757 42.462 79.5862 52.6874C75.4604 37.0537 79.1542 34.5301 78.3934 32.6931L65.1143 29.9483L65.2041 33.6983H65.2058Z" fill="#FF8200"/>
</g>
<defs>
<clipPath id="clip0">
<rect width="176" height="98" fill="white"/>
</clipPath>
</defs>
</svg>
