<svg width="111" height="62" viewBox="0 0 111 62" fill="none" xmlns="http://www.w3.org/2000/svg">
<path d="M12.9968 55.308V31.5989H25.6248V34.8816H16.6686V40.8167H25.6248V44.1991H16.6686V51.8584H25.6248V55.3068H12.9968V55.308ZM40.8795 55.308H37.5251V53.324C36.9288 54.2029 36.2278 54.8601 35.4306 55.2912C34.6291 55.7222 33.7165 55.9372 32.6821 55.9372C30.6143 55.9372 28.9793 55.1971 27.792 53.7103C26.5994 52.229 26.0042 50.1958 26.0042 47.6151C26.0042 45.1665 26.6112 43.1881 27.8294 41.6856C29.0477 40.1774 30.6356 39.4251 32.5923 39.4251C33.7892 39.4251 34.8129 39.6848 35.6625 40.2099C36.512 40.7294 37.134 41.4807 37.524 42.4592V39.9558H40.8785V55.308H40.8795ZM37.6191 47.5815C37.6191 45.995 37.2654 44.7578 36.5591 43.8733C35.8527 42.9832 34.8664 42.5409 33.6 42.5409C32.3284 42.5409 31.3313 43 30.6089 43.9114C29.8812 44.8227 29.5168 46.0946 29.5168 47.7136C29.5168 49.3438 29.8652 50.6044 30.5662 51.4878C31.2683 52.3779 32.2589 52.8202 33.5359 52.8202C34.7435 52.8202 35.7245 52.3398 36.4789 51.3781C37.2387 50.4163 37.6181 49.1512 37.6181 47.5815H37.6191ZM54.2919 55.308H40.6829L48.8376 43.0392H41.5004V39.9558H54.2919L46.306 52.2245H54.2919V55.308ZM54.4811 33.3231C54.4811 32.732 54.6916 32.2181 55.1084 31.7814C55.5251 31.3504 56.021 31.1343 56.6012 31.1343C57.1975 31.1343 57.6987 31.3448 58.0941 31.759C58.4895 32.1733 58.6904 32.6984 58.6904 33.3231C58.6904 33.9535 58.4895 34.4786 58.0888 34.904C57.6827 35.3295 57.1868 35.5456 56.6012 35.5456C56.021 35.5456 55.5251 35.325 55.1084 34.8884C54.6916 34.4517 54.4811 33.9322 54.4811 33.3243V33.3231ZM54.9245 55.308V39.9558H58.279V55.308H54.9245Z" fill="#153B50"/>
<path d="M79.3582 37.2697C78.2767 36.037 77.1215 35.1256 75.8979 34.54C74.669 33.9489 73.3129 33.6556 71.8307 33.6556C70.6338 33.6556 69.468 33.9097 68.3277 34.418C67.1939 34.9263 66.2022 35.6339 65.3687 36.5397C64.5031 37.479 63.8545 38.5292 63.4227 39.6903C62.9899 40.8513 62.7741 42.1333 62.7741 43.5373C62.7741 44.6368 62.9012 45.6534 63.1588 46.5827C63.4174 47.5108 63.8021 48.3617 64.3193 49.141C65.2266 50.489 66.339 51.528 67.6631 52.258C68.9871 52.988 70.4169 53.3519 71.9515 53.3519C73.3963 53.3519 74.7363 53.0373 75.9706 52.4125C77.2102 51.7878 78.3387 50.854 79.3571 49.6101V53.3519C78.2339 54.2028 77.0253 54.8499 75.7334 55.2866C74.4414 55.7232 73.1013 55.9382 71.7196 55.9382C70.527 55.9382 69.3622 55.7501 68.2273 55.3795C67.0935 55.0089 66.0334 54.4625 65.0417 53.7493C63.396 52.5558 62.135 51.0802 61.2652 49.3336C60.3953 47.5814 59.9572 45.6635 59.9572 43.5698C59.9572 41.7459 60.2478 40.0822 60.8324 38.5908C61.4126 37.0928 62.2985 35.7392 63.4965 34.5177C64.6516 33.3521 65.9287 32.4788 67.3318 31.9033C68.7349 31.3234 70.2641 31.0356 71.9205 31.0356C73.2338 31.0356 74.5002 31.2461 75.7237 31.6604C76.9527 32.0746 78.1613 32.7162 79.3582 33.5895V37.2697ZM92.1048 48.046C92.1048 46.3711 91.6666 45.023 90.7968 44.0064C89.9269 42.9842 88.792 42.4759 87.3889 42.4759C85.9388 42.4759 84.8039 42.9461 83.9917 43.8855C83.1742 44.8249 82.7682 46.1348 82.7682 47.8198C82.7682 49.6101 83.1796 50.9917 83.9971 51.9591C84.8146 52.932 85.9805 53.4179 87.484 53.4179C88.9245 53.4179 90.0584 52.9477 90.8759 52.0027C91.6934 51.0578 92.1048 49.7366 92.1048 48.046ZM94.4472 40.4863V55.3078H92.1048V52.6219C91.5405 53.7001 90.8128 54.523 89.9312 55.0862C89.0506 55.6549 88.0643 55.9371 86.9721 55.9371C84.9471 55.9371 83.3057 55.2071 82.0661 53.7426C80.8265 52.2782 80.2045 50.3435 80.2045 47.934C80.2045 45.4966 80.8061 43.5575 82.0137 42.1143C83.2159 40.6722 84.8306 39.9534 86.8503 39.9534C88.0322 39.9534 89.0603 40.2299 89.9312 40.7875C90.8011 41.3462 91.5085 42.1803 92.0407 43.2798V40.483H94.4462L94.4472 40.4863ZM96.8976 55.3078V40.4863H99.0552V43.5754C99.7038 42.2878 100.395 41.3697 101.128 40.8177C101.861 40.2647 102.753 39.9892 103.803 39.9892C104.093 39.9892 104.373 40.0116 104.642 40.0609C104.906 40.1102 105.175 40.1829 105.443 40.2759L104.642 42.5744C104.362 42.4748 104.099 42.4031 103.851 42.3539C103.603 42.3046 103.366 42.2822 103.139 42.2822C101.862 42.2822 100.903 42.7625 100.265 43.7299C99.6269 44.6972 99.3052 46.1505 99.3052 48.0897V55.3067H96.8997L96.8976 55.3078ZM105.936 42.5744H103.34V40.4852H105.936V34.5165H108.405V40.4852H111V42.5744H108.405V55.3078H105.936V42.5744Z" fill="white"/>
<path fill-rule="evenodd" clip-rule="evenodd" d="M37.0943 15.0047C36.2309 8.88264 33.104 3.57565 26.7735 3.56557C20.8714 3.55661 16.5948 8.52884 15.929 14.0698C23.3154 14.165 29.8052 14.5602 37.0954 15.0047H37.0943ZM41.1241 21.3194C41.2011 23.5463 42.7463 23.4981 41.8454 25.6948C40.5652 28.8174 35.4657 26.9219 37.0259 23.3078C37.9193 21.2388 37.7868 22.8118 37.557 18.5953C32.9982 17.3749 20.398 16.6102 15.3156 16.9316C15.1553 17.7691 14.9993 18.686 14.9544 19.5112C14.8358 21.7068 15.0292 20.6901 15.539 22.0225C16.2058 23.768 15.1799 25.4687 13.6026 25.6556C11.7464 25.8751 10.4843 24.4554 10.8883 22.486C11.4568 19.7161 11.3766 22.1434 11.7667 16.9562L3.70067 17.6795L4.30444 21.1078C6.22584 35.9595 4.65923 41.5576 3.90371 55.1352C8.3428 58.6822 26.1099 60.5553 33.3381 60.459C37.0238 60.4097 40.8623 59.7525 44.3086 59.7637C37.3112 63.2099 7.00274 62.9311 0.0149608 57.1013C0.419972 49.4722 1.7237 48.1365 1.59547 36.1297C1.48967 26.267 0.313109 22.1031 0 15.2902L12.3331 14.0855C13.8516 6.32879 18.5578 -0.158283 27.0909 0.00294201C35.5833 0.163047 39.3139 7.05766 40.6582 15.3451L53.7724 17.4253C54.7427 28.6271 50.9438 26.8637 50.1936 33.3329C47.5915 23.4422 49.9211 21.8456 49.4413 20.6834L41.0664 18.9469L41.1231 21.3194H41.1241Z" fill="white"/>
</svg>
